<svg xmlns="http://www.w3.org/2000/svg" viewBox="0 0 485.79569 467.22479">
  <defs>
    <style>
      .cls-1 {
        fill: #22256d;
      }

      .cls-2 {
        fill: #f2f2f2;
      }
    </style>
  </defs>
  <g id="Ebene_1" data-name="Ebene 1">
    <g>
      <path class="cls-1" d="M492.55216,248.01748a13.81861,13.81861,0,0,1-1.88-7.22c.04-.62-.11-1.35-.94-1.35a1.3428,1.3428,0,0,0-1.3,1.18c-.24,1.12-.25,2.3-.53,3.41a3.08017,3.08017,0,0,1-3.04,2.32c-1.76.13-1.63-1.21-1.76-2.36-.18-1.57-1.3-2.59-2.27-3.68-2.99-3.34-6.62-6.2-7.63-10.95a4.753,4.753,0,0,0-1.65-2.28c-3.29-2.8-4.7-6.6-5.83-10.58-.75-2.63-1.74-5.18-4.21-6.71a.5527.5527,0,0,0-.08-.05c-2.91-1.77-3.72-4.76-4.22-7.71a3.72761,3.72761,0,0,1,.18-1.89,3.98013,3.98013,0,0,1,1.93-2.28c1.7-.89,2.31.87,3.36,1.61a3.90159,3.90159,0,0,1,.73.67,8.46754,8.46754,0,0,1,1.29,2.13c.86,1.9,1.53,3.96,3.96,4.61.14.04.17.79.1,1.19-.96,5.85,3.93,8.27,7.14,11.43,1.09,1.06,2.29,1.78,2.73,3.35a12.69076,12.69076,0,0,1,.66,4.98c-.35,2.92,1.4,4.96,2.67,7.22a1.81194,1.81194,0,0,0,2.16.9,1.76744,1.76744,0,0,0,1.38-1.58c.14-5.33,2.34-10.39,1.71-15.89-.55-4.76-.89-9.65.6-14.4-.44-1.07.19-2.43-.88-3.34-2.21.53-3.7-.18-4.04-2.52-.3-2.04,1.14-2.37,2.7-2.49.48-2.67-1.34-4.71-2.12-6.98-1.23-3.57-1.12006-7.6-3.55-10.76-1.87.01-3.7-.15-5.36,1.21-1.46,1.18-2.97.56-3.61-1.03-1.86-4.65-5.15-8.38-7.72-12.58-.45-.73-1.02-1.55-.22-2.25.74-.66,1.4.1,1.81.65,2.63,3.48,5.77,4.94,9.97,2.73.3-.16.81.09,1.23.15-2.36005-2.68-2.55-6.29-4.01-9.35-7.91-16.55-16.74-32.57-28.13-47.04-.15-.2-.32-.39-.47-.59-.02-.02-.03-.04-.05-.06-.17-.19-.34-.38-.5-.57l-.16-.17c-.22-.03-.32-.15-.27-.37-.15-.24-.3-.49-.45-.73-.18-.23-.36-.45-.54-.67-.16-.2-.33-.38995-.49-.58l-.18-.23c-.2-.02-.27-.12-.23-.31-.16-.17-.32-.34-.49-.51l-.13.01.02-.13a2.8081,2.8081,0,0,1-.45-.4,3.59821,3.59821,0,0,1-3.61-2.57c-1.11-2.59-3.57-4.51-4.54-7.3-.11-.11-.22-.22-.32-.33l-.26-.26c-.21-.22-.42-.45-.63-.67l-.01-.01c-.19-.2-.37-.39-.56-.59l-.12-.13c-.15-.16-.29-.31-.44-.46l-.22-.22c-.13-.14-.26-.27-.39-.4a2.32658,2.32658,0,0,1-.26-.28c-2.11-.89-3.23-2.92-4.91-4.3-1.05-.86-2.01-2.21-3.19-2.45-3.56-.73-4.01-3.44-4.61005-6.19q-5.31-4.81494-10.61-9.61c-.28-.16-.55-.33-.83-.49a1.8331,1.8331,0,0,1-.48-.25c-.19-.16-.38-.33-.57-.48l-.33-.3-.32995-.3a.89766.89766,0,0,1-.34-.09.74908.74908,0,0,1-.12-.07.63369.63369,0,0,1-.24-.47,7.32847,7.32847,0,0,1-5.03-3.8c-4.2-.89-7-3.69-9.45-6.95-.39-.03-.65-.2-.68-.61-1.77-.05-3.16-1.07-4.49-1.99-7.08-4.85-14.58-9-22-13.3-.51-.29-1.19-.42-1.32-1.15a2.657,2.657,0,0,1-2.51-1.28,1.04531,1.04531,0,0,1-1.27-.62.96754.96754,0,0,1-1.02-.57c-5.47-1.06-10.08-4.15-15.09-6.32-.19-.2-.39-.41-.58-.61-.88.31-1.45-.44-2.16-.66-.27-.23-.56006-.46-.84-.69-5.46-.12-10.28-2.58-15.13-4.6-2.28-.95-5.23-.56-6.89-2.94a3.62827,3.62827,0,0,1-1.21.1c-7.41-2.07-15.14-2.31-22.61-4.05-.8-.18-1.66-.96-2.53-.21a1.33679,1.33679,0,0,0,1.27,1.34,49.25307,49.25307,0,0,1,11.55,3.4c3.78,1.45,7.96,1.86,11.73,3.34,6.13,2.41,10.87,7.49,17.3,9.43,1.05.32,1.08,1.17,1.02,2.04-.07.93-.75,1.12-1.52,1.28a7.62359,7.62359,0,0,1-5.16-.97c-5.2-2.65-10.69-4.75-15.24-8.58a2.39394,2.39394,0,0,0-3.57-.04c4.54,1.54,7.23,5.47,11.48,6.81994,4.45,1.41,8.13,5.02,13.23,4.58,1.98-.16,3.98-.16,5.96-.19a3.62293,3.62293,0,0,1,3.86,2.69,28.7884,28.7884,0,0,0,2.08,7c-1.76.14-3.22-1.28-4.77.22,2.71,1.25,5.96,1.53,7.31,4.19,1.47,2.9,3.75,5.03,5.89,7.6-5.24,2.77-8.15-2.13-12.12-3.49a4.02084,4.02084,0,0,1,1.42-.54c.98-.26,2.76.63,2.68-1.16a3.82339,3.82339,0,0,0-2.57-3.59,12.7847,12.7847,0,0,0-1.87-.29c-4.95-.85-9.88-2.05-14.95-.73a2.99859,2.99859,0,0,1-1.54-.23c-5.82-2.02-6.53-1.66-8.29,4.26-.24.81-.52,1.6-.74,2.41-.99,3.56,2.05,6.48,1.53,10.11-.22,1.51,1.14-.68,1.73-.06a1.6162,1.6162,0,0,1,.45,1.09c-.18,3.08.36005,6.19-1.52,9.13-1.52,2.4-1.38,6.37-.22,7.82a31.38191,31.38191,0,0,0,6.84,6.82c2.11,1.4,4.19,1.56,6.19.24,4.08-2.69,4-2.74,7.66.36,1.11005.95,2.41,1.68,3.56,2.6,1.21.95,2.6,1.8,2.85,3.53,4.72-.24,6.3-3,3.75-6.97a23.14029,23.14029,0,0,1-3.34-8.4c-.29-1.56994-1.02-2.96-2.77-2.96-3.93,0-5.53-2.48-6.38995-5.72-.32-1.22-.82-1.88995-2.08-1.88-1.67.02-3.15.01-3.09-2.41.06-2.11,0-3.74,2.75-4.41,3.14-.76,4.79,1.04,5.16,3.19.72,4.29,4.25,5.99005,6.8,8.51,2.89,2.86005,5.88,2.47,8.73-.42a8.30815,8.30815,0,0,1,1.43-1.23,2.13486,2.13486,0,0,1,3.4.92c.72,1.45-.17,1.91-1.44,2.44-2.92,1.19-3.01,2.82-.43,4.74.42.31.96.46,1.36.79,1.24.99005,1.56,2.2-.07995,2.91-2.23.97-1.42005,2.26-.56,3.48.78,1.11,1.88995,1.98,2.74,3.05,2.17,2.76,1.68,4.45-1.54,5.79a3.6604,3.6604,0,0,0-1.57,1c-1.24,1.62-2.61,1.53-4.46,1.05-2.03-.54-4.8-1.7-5.06,2.27-.08,1.13-1.11,1.12-1.96,1.1a5.02584,5.02584,0,0,1-4.48-3c-.55-1.02-.89-2.15-1.48-3.13-.81-1.35-2.2-1.97-3.47-.99-1.14.88-.35,2.05.39,3.03,1.33,1.77,2.62,3.56006,3.84,5.39.81,1.22,1.01,2.02-.95,2.67005-3.39,1.12-5.77,3.41-5.76,7.37994a5.20593,5.20593,0,0,1-1.25,3.18005,2.611,2.611,0,0,1-2.74,1.16,2.07943,2.07943,0,0,1-1.67-2.06c-.18-2.87-1.87-4.3-4.4-5.1a8.33926,8.33926,0,0,1-2.81-1.99c-4.2-3.71-8.95-6.9-11.35-12.3a1.27506,1.27506,0,0,0-1.05-.52c-3.04.54-3.93-1.43006-4.32-3.91-3.1,1.97-3.59,4.44-1.67,7.93.83,1.49,1.99,2.96.41,4.55-1.76,1.77-3.42,3.96-5.59,4.93006-2.47,1.1-2.09,2.34-1.49,4.12994a12.51939,12.51939,0,0,1,.46,2.14c.59,4.03,3.56,5.44,7.08,3.34,3.25-1.95,3.99-8.64,1.3-12.39-.79-1.11-1.64-2.13-.24-3.23,1.51-1.18,1.96.6,2.95,1.07,5.36,2.56995,5.4,6.62995,3.68,11.37995-.71,1.95-.02,2.98,2.1,3.02,1.76.04,1.68,1.12,1.38,2.42-.18.76-.94,1.7-.03,2.32,1,.67,2,.11,2.88-.56,3.16-2.43,6.98-2.72,10.72-3.08,2.37-.23,2.99.92,1.91,3.1-1.58,3.2-4.39,4.66-7.75,5.23-1.42.24-2.7.68-3.23,2.15-.42,1.18-.27,2.69.86,3.08,3.84,1.3,5.66,5.77,10.01,6.2,1.27.13,1.85,1.12,2.36005,2.28.79,1.8.65,3.72.98,5.57.43,2.41-.8,3.78-3.29,3.96-4.9.36005-9.68994,1.52-14.68994,1.42-4.73-.09-6.04,2.42-3.82,6.54,2.18,4.04,3.4,8.1,1.7,12.64-.37.98-.69,2.03.97,2.4,2.33.52,2.93,2.28,3.16,4.48.36,3.5,2.01,4.38,5.16,2.74,2-1.04,3.26-.59,4.63,1.04,1.55,1.85,1.7,3.8,1.5,6.12a11.75892,11.75892,0,0,1-3.08,6.84,33.014,33.014,0,0,1-2.34,2.41c-3.09,2.93-3.02,3,.41,5.19a3.45309,3.45309,0,0,1,1.53,1.82,3.35943,3.35943,0,0,1,.05,1.97c-.43,1.72-1.75.98-2.84.88995-2.66-.2-3.47,1.31-3.31,3.67a13.87009,13.87009,0,0,1-3.55,10.21,25.49242,25.49242,0,0,1-2.3,2.35c-.97.87-1.99,1.68-3.03,2.45a11.9177,11.9177,0,0,0-4.83,7.08c-.27.98-.23,2.35-1.64,2.35-2.65-.01-2.39,1.75-2.35,3.46a20.715,20.715,0,0,0,.99,4.61c.58,2.25.19,3.97-2.64,4.22a4.14513,4.14513,0,0,0-3.58,2.43c-.13.22-.26.47-.39.73-2.33,4.82-2.74,8.85.39,12.23a13.94737,13.94737,0,0,0,2.9,2.34,2.37253,2.37253,0,0,0,2.16.45c1.01-.27,2.31-1.38,2.61.69.23,1.56.05,2.84-2.07,3.14-1.92.28-4.5.86-4.03,3.42.85,4.74-.6,9.34-1.57,13.96-.77,3.67-1.23,7.35,0,11.14q.105.345.24.69c.76,2.04.85,4.07995,3.37,4.68994a4.80067,4.80067,0,0,1,3.05,2.11,21.46057,21.46057,0,0,0,7.33,7.19.54935.54935,0,0,1,.08.06,5.69689,5.69689,0,0,1,2.47,3.34,6.37183,6.37183,0,0,1,.17.66,9.9019,9.9019,0,0,0,6.24,7.59,61.06791,61.06791,0,0,1,11.01,6.58c3.66,2.59,7.5,3.98,12.32,1.89,4.53-1.97,8.7-5.48,14.05-5.03,8.48.71,15.24-2.92,21.41-8.12q.375-.31494.75-.6a13.57151,13.57151,0,0,1,3.98-2.13c4.1-1.31,8.15.08,11.53,4.21a4.20785,4.20785,0,0,0,4.54,1.33c1.43-.3,2.79-.94,4.21-1.3,4.19-1.07,7.06,1.16,7.21,5.43a18.35337,18.35337,0,0,1-.83,5.26c-.93,3.59-.42,4.67,2.93,5.96,1.03.39,1.63.87,1.55,2.02-.09,1.22-.9,1.56-1.94,1.61005a10.42773,10.42773,0,0,1-1.58.03c-2.07995-.24-2.66.7-2.73,2.73-.15,4.64,3.04,7.09,6.17,9.27a9.2263,9.2263,0,0,1,4.06,6.67c.66,4.03,1.88,7.95.21,12.06-.36.89.29,2.24.6,3.35.84,2.92.66,5.88-1.43994,8.01a27.13955,27.13955,0,0,0-5.93,9.86c-1.22,3.24-2.72,6.36-4.07,9.53-1.85,4.35.43994,8.59,1.29,12.81.69,3.47-1.7,10.86005-4.39,12.47-1.04.63-3.45.23-2.25,2.66.68,1.39.09,3.53,1.64,4.2,1.78.77,1.48,2.01,1.62,3.33.26,2.48-1.15,4.16-2.63,5.84-.71.82-1.38,2.01-.71,2.86005.86,1.11,2.11.28,3.13-.22a12.46527,12.46527,0,0,0,1.25-.95c3.84-2.56,7.63-5.19,12.06-6.62,10.51-7.36,18.34-17.31,26.12-27.3a.83431.83431,0,0,1,.69-.95.77131.77131,0,0,1,.07-.36.30556.30556,0,0,1,.05-.07.23629.23629,0,0,1,.08-.09.5071.5071,0,0,1,.18-.09h.01a.80143.80143,0,0,1,.23-.03,1.51133,1.51133,0,0,1-.02-.2.88573.88573,0,0,1,.02-.17.65946.65946,0,0,1,.05-.15.46685.46685,0,0,1,.05-.1.5494.5494,0,0,1,.07-.09.73069.73069,0,0,1,.16-.14.85789.85789,0,0,1,.25-.14.87525.87525,0,0,1,.17-.6.47509.47509,0,0,1,.1-.1.35921.35921,0,0,1,.12-.08l.12-.06a1.04881,1.04881,0,0,1,.19-.05v-.03a.678.678,0,0,1,.04-.26.40236.40236,0,0,1,.08-.16c0-.01.01-.02.02-.03l.02-.02a.33608.33608,0,0,1,.16-.1.67776.67776,0,0,1,.26-.04h.05a.88155.88155,0,0,1-.01-.36l.03-.12c.02-.04.04-.09.06-.13a.41272.41272,0,0,1,.06-.08c.03-.03.06-.07.09-.1a1.01568,1.01568,0,0,1,.23-.15c.04-.02.09-.04.13995-.06a104.83275,104.83275,0,0,0,13.25-19.54c-.2-1.13-.25-2.15,1.29-2.22-.74-1.25-.14-2.42.3-3.57,2.5-6.53,6.45-12.27,10.04-18.2.37-.62.78-1.26,1.68-.99a.81157.81157,0,0,1,.55-.99,1.04151,1.04151,0,0,1,.73-1.53,1.95726,1.95726,0,0,1,1.23-2.9c.2-.39.4-.79.6-1.19a1.133,1.133,0,0,1,.71-1.58,1.1705,1.1705,0,0,1,.58-1.49c.42-.88.85-1.76,1.27-2.65a1.67463,1.67463,0,0,1,.61-1.88995,4.467,4.467,0,0,1-.18-1.23c1.43-8.8,1.81-17.89,5.02-26.24,2.94-7.67.25-16.19,4.37006-23.51.05-.08.02-.21.02-.31.07-8.85,3.47-17.18,4.11-25.98.22-3.11.9-5.79-1.18-8.58-1.17-1.59-1.81-3.88995,1.57-4.27,1.69-.18,1.44-1.53,1.5-2.65.15-2.83-.34-5.69.47-8.48C492.81217,250.4675,493.19217,249.26748,492.55216,248.01748Zm-70.79-143.93c.17-.71.08-1.47.22-2.19.28-1.5.91-2.63,2.74-2.09,1.68.5,2.96,1.43,2.38995,3.38-.46,1.57-1.91,3.05-.8,4.72a14.51861,14.51861,0,0,0,5.67,4.89c3.5,1.78,6.59,3.85,8.43,7.62,1.04,2.11,3.18,3.61,5.22,4.89,2.5,1.56,3.8,4.61,2.81,7.16-.77,1.99-2.42,1.13-4.29,1.19-1.77.63-2.59-.49-3.19-2.55-1.8-6.11-6.45-10.35-10.34-15.07a4.41455,4.41455,0,0,0-2.42-1.37C421.79215,112.88748,420.27219,110.36752,421.76218,104.08749Zm-23.01,23.21a17.51239,17.51239,0,0,0,.99-6.5c-.05-.86.11-1.95,1.18-1.89,3.46.16,4.31-2.5,5.43-4.83.49-1,.86005-2.12994,2.18006-1.72,1.25.39,2.99.83,2.87,2.48-.32,4.34,2.97,5.2,5.87,6.21a35.80006,35.80006,0,0,1,7.37,3.49,5.04118,5.04118,0,0,1,2.3,3.97c.02,3.93-2.21,5.69-5.66,4.78-3.7-.98-5.83.29-6.68006,3.96-.65,2.81-5.27,4.3-7.4,2.36a10.32379,10.32379,0,0,1-3.08-4.32c-.82-2.53-1.67-4.69-4.69-5.31C398.06217,129.69754,398.43216,128.2875,398.75217,127.29751Zm-72.58,60.57a32.508,32.508,0,0,1,7.5-3.12c4.69-1.58,8.52-7,7.28-11.64-1.18-4.42,1.2-7.51,3.21-10.56,1.55-2.35,2.44-4.18,1.18-6.87-1.19-2.52-.18-4.16,2.66-4.12,3.01.04,5.57-.43,7.54-2.95a1.76913,1.76913,0,0,1,2.99.1,3.27923,3.27923,0,0,0,2.81,1.15c7.29.06,13.19,4.23,19.59,6.8,2.87,1.16,5.57,3.32,6.26,6.91a1.83007,1.83007,0,0,0,2.61,1.52c1.51-.58,1.33-1.98.96-3.24-.54-1.85-2.63-2.75-3.08-5.08,1.39,0,2.94.73,3.33-1.06994.32-1.54-.83-2.17005-2.1-2.7a22.14641,22.14641,0,0,0-5.1-1.57c-1.96-.31-3.64-1.05-4.39-3.11-.62-1.71-2.04-1.79-3.59-1.91-3.51-.27-7.28-.08-9.23-4a17.94711,17.94711,0,0,1-1.24-2.53c-.63995-1.97-.05-3.08,2.24-2.74a9.05817,9.05817,0,0,1,5.53,2.78,11.40462,11.40462,0,0,0,5.38,3.01c3.55,1.12,6.7,3.36,10.42,4.14a1.69958,1.69958,0,0,1,.89.83c3.63,6.78,10.87,10.04,15.47,15.87.63.79,1.51,1.71,2.69,1.18006,1.1-.48.56-1.63.68-2.53.42-3.22-.57-5.22-3.88995-6.51-3.82-1.49-4.38-5.04-1.86005-8.25,1.39-1.77,3.57-1.6,5.03.11,2.91,3.39,5.92,6.69,8.98,9.93006,1.8,1.92,4.49,1.54,6.76,2.24.24.07.81-.18.82-.3.13-3.22,2.44-2.9,4.62-2.97a2.25381,2.25381,0,0,0,1.98-1.82c.77-2.76,1.87006-1.89,3.12006-.35,3.17,3.91,4.36,8.78,6.46,13.2a13.04827,13.04827,0,0,1,1.52,6.38995c-.13,2.12-.9,3.65-3.29,3.86005a4.46308,4.46308,0,0,0-4.25,3.59c-.25.99-.73,1.49-1.72,1.47-4.85-.09-9.66,1.4-14.58-.3-3.95-1.37-7.17,2.02-6.29,6.17,1.57,7.37,1.63,7.04-5.77,5.83-3.43-.56-6.18-2.32-9.2-3.22-1.25-.37-2.46-.71-3.59-1.13a9.62471,9.62471,0,0,1-5.64-4.53.68832.68832,0,0,0-.52-.31,6.683,6.683,0,0,1-5.03-1,11.70868,11.70868,0,0,1-3.22-3.85c-.84-1.44-1.51-2.1-.56994-3.61.9-1.46.51-2.06-1.4-2.35-4.47-.67-7.96,2.08-11.94,3.05-2,.49-3.84,1.55-6.04,1.45a10.04505,10.04505,0,0,0-4.77,1.34c-5.47,2.6-10.79,5.23-14.81,10.05-1.92,2.3-11.76,1.58-13.74-.56C325.02219,189.1575,324.99216,188.63748,326.17215,187.86752Zm148.13,171.1c0,.01.01.02.01.03l.03-.05C474.33218,358.95749,474.31217,358.95749,474.30216,358.9675Zm-2.54,5.67a.06018.06018,0,0,0,.01.04l.03-.05C471.79215,364.62753,471.77219,364.63748,471.76218,364.63748Zm-.73,1.53a.18508.18508,0,0,0,.02.07l.03-.09C471.06217,366.1575,471.05216,366.1575,471.0322,366.16751Zm-.55.99c0,.02.01.03.01.05l.04-.04A.09024.09024,0,0,0,470.48215,367.1575Zm-12.02,22.76a.07583.07583,0,0,0,.02.04l.04-.05A.1266.1266,0,0,0,458.46219,389.91751Zm-15.14,22.76c-.01.01,0,.03,0,.04l.03-.04Zm-.63.64v.03h.01c.01-.01.02-.03.03-.04A.0601.0601,0,0,0,442.69217,413.31753Zm-.7.89v.06l.03-.06994C442.01218,414.19754,442.00217,414.20749,441.99216,414.20749Zm-.58.99a.07555.07555,0,0,0,.01.04l.04-.04Zm-.62.63995v.04c.01-.02.03-.03.04-.05C440.82217,415.82748,440.80216,415.83749,440.79215,415.83749Zm-39.22-348.91v.03c.01,0,.03.01.04.01Zm-5.05-3.8c.01.00995.01.02.02.03a.03676.03676,0,0,0,.03.01Zm-10.12-7.58a.0905.0905,0,0,0,.01.05h.04Zm-27.81-16.43a.0603.0603,0,0,0,.01.04h.04Zm-2.52-1.27c.01.01.01.02.02.03h.03Zm-1.27-.63c.01.01.01.03.02.04h.03Zm-14.53,61.92h-.05l.06.05A.09024.09024,0,0,0,340.27219,99.13748Z" transform="translate(-7.10215 -16.3876)"/>
      <path class="cls-1" d="M204.08218,394.80752c-.52-.31-1.4-.94-1.32-1.2,1.08-3.81-1.09-5.66-4.03-7.23-.65-.35-1.06-1.66-1.89-1.36005-1.55.56.48,1.69-.21,2.71a7.67665,7.67665,0,0,1-1.83-2.53c-1.78-4.88-10.63-11.07-15.76-11.05a17.747,17.747,0,0,1-9.55-2.79,4.12266,4.12266,0,0,0-4.14-.55c-2.03.89-3.44.65-3.41-2.08a2.69534,2.69534,0,0,0-1.58-2.24c-4.52-2.36-8.66-5.6-14.01-6.03-.77-.06-1.56-.31-1.76-1.1-.4-1.62-1.56-1.69-2.9-1.78-3.78-.25-4.93-1.61-4.16-5.29a3.85849,3.85849,0,0,0-1.01-4.02c-1.73-1.6-2.35-3.74-2.92005-5.85-.84-3.03-1.11-6.65-4.62-7.65-3.75-1.06-2.83-5.38-6.04-7.04-3.42-1.77-7.13-1.6-10.49-3.01-.41-.17-.83-.33-1.25-.48-.54-.19-1.09-.38-1.63-.57-3.23-1.11-6.27-2.41-6.61-7.19-.23-3.32-3.34-5.21-5.65-7.34-3.32-3.05-3.77-4.74-2.16-8.49a2.02422,2.02422,0,0,0-.31-2.34c-.62-.71-1.26-.38-1.99-.09-1.66.65-3.42,1.39-3.08-1.73.09-.75-.75-1.01-1.39-.95a23.95768,23.95768,0,0,1-10.16-.97,18.07882,18.07882,0,0,1-4.77-2.47,1.43521,1.43521,0,0,0-.92-.18c-1.81.18-2.44-.73-2.98-2.41a6.65156,6.65156,0,0,0-4.13-4.15,6.72719,6.72719,0,0,0-4.3-.13,1.66465,1.66465,0,0,1-2.32-.91c-.52-1.1-.54-1.99.87-2.49a1.83814,1.83814,0,0,0,1.05-3.02c-.95-1.41-2.36005-.9-3.26.04a5.66131,5.66131,0,0,1-4.87,1.64c-3.13-.22-5.28.74-5.82,4.27a4.19019,4.19019,0,0,1-3.42005,3.37c-1.78.3-2.25995-1.53-2.81994-2.88a6.33833,6.33833,0,0,0-4.66-3.82c-3.87-1-6.94-2.93-7.52-7.4-.49-3.84.32-7.81-1.16-11.57-.13-.34.24-1.02.55-1.39,1.69-2,2.33-4.45,3.11-6.85a7.98678,7.98678,0,0,0-1.88995-8.56,9.11979,9.11979,0,0,0-2.74-1.8,9.48179,9.48179,0,0,1-4.82-3.88c-.52-.93-1.04-1.96,0-2.86,4.13-3.6,5-9.14,7.97-13.43a7.58728,7.58728,0,0,0,1.12-2.92005,3.66832,3.66832,0,0,0-2.83-4.57995,3.33,3.33,0,0,0-2.29-.04c-.88.37-1.39,1.3-1.62,2.7a8.99389,8.99389,0,0,1-1.09,2.59c-.73,1.38-1.72,2.47-3.49,2.05-1.88-.46-3.46-1.58-3.56-3.55-.37-7.46-.13995-14.83,2.63-21.99,1.88-4.89,5.11-9.11005,6.36-14.34a10.14565,10.14565,0,0,1,7.47-7.48c1.98-.56,5.7,1.67,5.91,3.73.12,1.12.39,1.95,1.6,1.81,1.39-.16,1.42-1.26,1.35-2.4-.07-1-1.43-1.67-.72-2.85a9.12042,9.12042,0,0,1,7.96,7.23,3.09067,3.09067,0,0,0,.59,1.72,1.97137,1.97137,0,0,0,.52.36c2.78,1.35,3.91,3.5,2.03,6.19-2.69,3.84-2.81,7.62-1.89,11.8a13.78567,13.78567,0,0,1,.03,1.58c.12,1.09-.4,2.51.99,3.06a3.62028,3.62028,0,0,0,4.09-.86,8.26211,8.26211,0,0,0,2.50995-4.96,10.89459,10.89459,0,0,0-.37-4.01c-1.73-6.5-.92-12.44,4.38-17.32995,2.72-2.51,6-3.86005,9.2-5.37006,5.42-2.55,10.64-4.97,11.57-12.02a5.672,5.672,0,0,1,5.54-4.84,4.21465,4.21465,0,0,0,3.32-2.12,27.67951,27.67951,0,0,1,3.54-4.01c1.55-1.67,3.09-2.85,5.73-2.06,2.32.7,3.97.01,5.3-2.77,3.68-7.67,11.06-8.7,15.56-2.84,2.38,3.1,4.32,2.81,7.1.06,1.02-1.02,1.84-2.42,3.59-2.21,3.19.4,5.9-1.3,8.83-2.01,1.11-.27,2.2-1.62,1.11-2.26-2.44-1.45-3.76-4.67-6.79-4.84-3.35-.2-2.34-1.83-1.56-3.5a13.74939,13.74939,0,0,1,1.47-2.05c1.78-2.43,1.27-3.9-1.66-4.33-1.97-.29-4-.23-6-.32995-.04-.29-.08-.58-.13-.87006,3.63-.35,6.41-3.13995,10.24-2.92,1.81.11,3.19.5,2.45,2.84-.42,1.34.38995,2.2,1.4,2.89.51.35,1.14.72,1.69.09.43-.49.05-.95-.23-1.4-.57-.95-1.69-1.61-1.62-3.22,2.61.31,5,1.53,7.66,1.37a10.85455,10.85455,0,0,0,5.8-2.13c.97-.68,2.47-.88,3.24.02.87,1.03-.42,1.84-1.06,2.62-1.72,2.07-4.09,3.28-6.33,4.63-2.29,1.38-3.71,4.01-3.46,5.92.26,1.98,3.33,1.95,5.49,1.74a4.93422,4.93422,0,0,1,.94-.04c1.21.13,2.8-.6,3.49.74.77,1.52-1.15,1.96-1.75,2.96-.07.12.07.36.15.74,1.27-.03,2.55-.07,3.13-1.48.73-1.77,1.71-1.5,2.37-.18006.66,1.3,1.03,2.78,2.81,1.59,1.6-1.07,2.63-2.5,1.22-4.51a4.05344,4.05344,0,0,1-.96-2.62,4.45523,4.45523,0,0,0-2.26-4.73c-1.09-.66-1.91-1.94-.79-3.22,2.48-2.82,3.06-6.62,5.12-9.63,1.14-1.68.98-2.74-.14-4.59a58.89668,58.89668,0,0,0-4.5-7.1,4.52843,4.52843,0,0,1-.6-4.48,30.38455,30.38455,0,0,0,2.07-8.55c.05-1.37,1.71-3.16.36-4.01-1.53-.96-3.03.72-4.31,1.81a7.22015,7.22015,0,0,1-1.57,1.06,2.85379,2.85379,0,0,1-4.12-2.99c.09-1.16.92-1.85,1.49-2.72,2.33-3.56995,1.29-8.94-2.28-9.65-3.22-.64-5.76-1.43-7.04-4.74-.31-.8-1.5-.72-2.24-.15-.68.54-.38,1.46.22,1.48,3.17005.1,1.67005,2.03,1.66,3.6-.02,3.79-2.1,7.15-5.73,7.98a4.11637,4.11637,0,0,0-3.28,3c-1.33,6.06-5.93,8.61-10.95,10.75a6.3819,6.3819,0,0,0-3.41,2.83c-1.35,2.29-3.5,4.11-5.11,6.32a3.0655,3.0655,0,0,1-3.73.96c-1.39-.72-.74-2.24-.52-3.43.41-2.12,1.7-3.81,2.87-5.56,1.58-2.38,5.02-4.27,2.06-7.93-.41-.51.04-1.65-.11005-2.47-.9-5.11,1.65-9.89,1.34-14.96-.19-3.01.68-3.7,3.54-2.69a6.206,6.206,0,0,0,6.21-.88c3.77-2.71,8.45-2.96,12.69-4.43,1.08-.37,2.57-.36,2.6,1.68.02,2.15,1.3,2.06,2.79,1.27,1.12-.59,1.92-.91,2.62.79.68,1.69,1.78,1.17,2.26-.35.72-2.27,1.42-4.56,1.95-6.89.33-1.44.5-1.83,2.22-1.15a6.48254,6.48254,0,0,0,7.49-1.45,4.52491,4.52491,0,0,1,3.75-1.82,2.55327,2.55327,0,0,0,2.81-2.01,1.72446,1.72446,0,0,0-.58-2c-1.18-.74-2.13-.02-3.21.5-2.93,1.43-5.73,3.2-9.11,3.75a18.74137,18.74137,0,0,1,3.62-2.48c.7-.41,2-.73,1.68-1.61-1.08-2.99,1.45-3.45,2.98-4.49,3.41-2.33,7.38-3.42,11.23-4.74,1.6-.55,3.69-.69,3.58-3.18a5.44326,5.44326,0,0,1-2.97-.59c-2.62-1.63-8.86-.55-9.29,2.13-.52,3.3-3.05,3.86-4.78,5.54-.84.8-1.78,1.68-2.95.47-.77-.8-2.64-.41-2.56-1.9.07-1.33,1.73-.86,2.55-1.44.25-.18.54-.33.78-.53a27.16808,27.16808,0,0,1,11.12-5.6c.53-.11,1.03-.45.99-1.02a1.1384,1.1384,0,0,0-1.08-.98c-.63-.1-1.45.36-1.91-.5,1.05-2.16,3.83-1.82,5-3.72.38-.61,1.84-.6,1.27-1.77a1.62355,1.62355,0,0,0-2.26-.52c-2.95,1.82-6.47,1.41-9.56006,2.65-.72.29-1.62.6-1.13995,1.47,1,1.81-.39,2.41-1.46,2.76-1.65.56-2.99,1.68-4.93,1.82-2.77.18994-4.07,3.86-2.37,6.12a6.697,6.697,0,0,1,1.3,5.98c-.38,1.14-2.38-.46-3.7-.64-1.4-.19-1.6-1.3-1.09-2.4a6.33971,6.33971,0,0,0,.92-3.29c-.31-3.12,1.19-5.43,3.27-7.51,3.5-3.48,6.75-7.28,11.94-8.34.81-.16,1.79-.56,1.4-1.68-.33-.94-1.25-.63-1.89-.36-2.78,1.15-6.04,1.2-8.25,3.69a3.98572,3.98572,0,0,1-2.87,1.18006c-3.26.09-6.08,1.55-8.98,2.78a222.22869,222.22869,0,0,0-28.42,14.83c-5.55,3.38-11.45,6.27-16.57,10.29q-10.905,8.565-21.49,17.57c-10.84,9.2-20.03,19.78-29.12,30.56-3.16,3.75-4.85,8.42-7.91,12.09a80.37846,80.37846,0,0,0-10.34,15.74,32.31122,32.31122,0,0,1-5.23,7.82c-2.79,2.95-2.83,6.8-3.75995,10.53-2.26,9-5.64,17.73-8.8,26.49-.9,2.5-1.04,4.4.68,6.64,1.58,2.07.74005,3.55-1.84,3.68-1.64.09-2.26.7-2.78,2.27-3.15,9.52-3.5,19.26-2.09,29.05.55,3.86,1.53,7.7,4.54,10.84a10.39731,10.39731,0,0,1,2.91,8.38995,13.55734,13.55734,0,0,0,1.03,6.75,22.29514,22.29514,0,0,0,3.21,5.25c.04.05.07.09.11.14a8.14516,8.14516,0,0,1,1.27,8.78,2.56819,2.56819,0,0,0,.06,2.66c2.93,4.36,2.33,10,5.39,14.48,1.03,1.5,1.36,3.72,2.86,5.29,1.27,1.33,2.72,2.69,2.6,4.86-.04.89.29,1.82,1.33,1.81,1.17-.01,1.05-1.09,1.12-1.9a10.52,10.52,0,0,1,.02-1.26c.29-1.38.98-3.07,2.25-3,1.21.06,1.98,1.78,2.13,3.17.13995,1.35-.46,2.94.06995,4.04,2.16,4.6,1.8,9.44,1.8,14.26,0,2.38.5,4.92-2.29,6.35a1.56734,1.56734,0,0,0-.6,1.7c.49,2.01-.85,3.12-2.09,4.27-3.4,3.14-4.85,9.1-2.91,13.25a9.92109,9.92109,0,0,1,.62,5.48c-.36,3.83-1.12,7.73,1.13,11.36a86.91028,86.91028,0,0,1,6.79,13.83c1.3,3.27,2.04,6.99,5.49,9.08,1.84,1.11,2.81,2.75,2.09,5.07a2.33542,2.33542,0,0,0,.25,1.83c2.81,3.83,3.92,8.56,6.81,12.39,4.58,6.07,10.84,10.25,16.39,15.21.86.78,1.75,1.28,2.03,2.6a123.20661,123.20661,0,0,0,4.99,16.27c.84,2.3,1.69,5.11,4.48,5.73,2.35.53,2.48,1.88,2.33,3.66-.41,4.89.33,9.51,3.58,13.34,2.27,2.68006,3.64,5.9,5.66,8.71,1.06995,1.5.46,3.73,2,4.87,2.4,1.77,3.17,4.32,3.87,6.96a224.29744,224.29744,0,0,0,27.88995,16.46c2.33.38,2.96-.37,1.64-2.45a3.53151,3.53151,0,0,1-.05-4.39c1.17-1.57,2.59-.9,4-.5a5.3341,5.3341,0,0,0,1.22.31c1.44.06,3.2.75,4.19-.46.91-1.12-.44-2.3-.97-3.4-.28-.55-.73-1.16-.31-1.76.55-.76,1.31-.38,2.01-.17.7.22,1.4.46,2.12.61,1.94.41,3.4.56,4.43-2a8.66721,8.66721,0,0,1,5.66-5.07c4.01-1.22,5.7-4.72,4.53-8.64-.37-1.27-.62-2.39.2-3.59,1.9-2.78,9.77-4.92,12.88995-3.44a9.69618,9.69618,0,0,0,13.01-4.73,9.937,9.937,0,0,1,3.98-4.71,3.975,3.975,0,0,0,2.21-3.55c-.02-5.36.08-10.71.09-16.07,0-1.64.09-3.46,1.68-4.15a15.13221,15.13221,0,0,0,7.57-7.12,28.05391,28.05391,0,0,1,5.9-6.84C207.70218,399.10751,207.15219,396.61752,204.08218,394.80752Zm-112.84-263.93c-1.01.3-2.04.47-3.07.68-3.23.65-5.6-1.44-5.22-4.66.17-1.41.82-2.36,2.18-.9.93.98,1.81,1.56,2.03-.27.25-2.06.69-3.57,3.2-2.99,2.53.6,2.95,2.7,3.31,4.74C93.54215,129.17752,92.87216,130.4075,91.24216,130.87753Zm-8.2-19.22c2.65-.9,5.24-2.4,8.05-2.29,1.96.08,1.37,2.17,1.47,3.14-.19,2.74-.2,5.19-3.14,5.87a7.66689,7.66689,0,0,1-2.36-.06c.01-3.09-3.68-3.01-4.48-5.29C82.45218,112.64749,82.75217,111.74752,83.04215,111.6575Zm96.02-72.52v.04h.04Z" transform="translate(-7.10215 -16.3876)"/>
      <path class="cls-1" d="M179.104,39.17449a1.15226,1.15226,0,0,0,.528-1.6196c-2.64178-3.89058-.34026-7.07217,2.32145-8.96831,2.85121-2.03112,6.66613-1.3705,9.987.09947a15.16082,15.16082,0,0,0,9.48774,1.428c7.10485-1.3416,14.72354-2.86277,21.38329.57234,5.512,2.84308,10.30906,2.5075,15.79981.95678,3.67146-1.03692,7.224.67773,10.55521,2.33126.56156.27876,1.025.88644,1.59746.99,3.05594.55272,3.20245,2.1395,1.72387,4.42149a7.11917,7.11917,0,0,0-.04523,7.78226,7.18833,7.18833,0,0,1,.26666,7.11263,10.45446,10.45446,0,0,0-.85848,4.2871,8.3098,8.3098,0,0,1-6.739,8.31458c-4.47534,1.00416-9.02276,1.77833-13.09046,4.05612a2.84442,2.84442,0,0,1-3.73754-.33686c-1.4712-1.44405-2.823-1.04549-4.1652.11349a6.1125,6.1125,0,0,1-3.20613,1.75732c-1.32611.20067-1.77672,1.53453-2.03477,2.87839a10.88588,10.88588,0,0,1-3.42866,6.56052c-3.03006,2.55229-5.09917,5.83326-7.10761,9.14646-1.15013,1.89727-2.32621,2.26117-4.02036.76536a2.73726,2.73726,0,0,0-1.343-.78237c-6.93655-.62719-7.39668-6.12146-8.27026-11.15592a5.52739,5.52739,0,0,1,1.30387-5.018,2.9079,2.9079,0,0,0,.70254-2.30427c-.05964-5.1055.69239-6.11518,5.32751-7.933,1.37875-.54072,3.6581-1.01188.66421-2.80367a1.194,1.194,0,0,1,.34329-2.22262c1.92312-.60677,1.96623-1.85077,1.79724-3.44751-.08727-.82438.05322-1.93951.79792-2.289,3.555-1.66822,2.84377-5.3668,3.96815-8.15411.57332-1.42125-.08794-2.56-1.90506-2.88076-2.98855-.52745-5.92427-1.3523-8.91106-1.89246-2.2298-.40326-3.64792,1.37877-5.20819,2.47266-3.06312,2.14755-3.69857,2.1542-6.40084-.52182-2.23463-2.21291-4.16853-5.21031-8.12423-3.75729ZM205.95255,60.734c-.19976-.35862-.335-.8096-.47045-.80969-.7165-.00043-.50855.65375-.56786,1.05018-.02905.19417.26513.4367.413.65734Z" transform="translate(-7.10215 -16.3876)"/>
      <path class="cls-1" d="M174.38637,47.93114a9.63073,9.63073,0,0,1,5.233-2.36828c-.25655-.45613-.3115-.69883-.42221-.72768-.86221-.22473-1.98245.37181-2.56273-.70076-.33245-.6145.18215-.998.70308-1.13114,1.38386-.35371,3.185-1.38549,4.11837-.02719a23.50058,23.50058,0,0,1,4.15783,13.4059,2.82292,2.82292,0,0,1-2.22841,2.75544c-2.30624.62208-1.824,1.6733-.93791,3.17409.97136,1.64514,3.12512,3.563,1.41938,5.31467-2.20216,2.26139-3.68766,6.23094-7.72947,5.61978-3.91647-.59222-6.08192,3.15374-9.60208,3.21013-.14116.00226-.386.2753-.4.43787-.16053,1.86817-.71587,3.05034-2.9499,2.12219a5.362,5.362,0,0,1-3.3841-6.07282c.53768-2.0584,1.78337-4.1773-1.90274-4.362-.71009-.0356-.92663-.81355-.81485-1.4729a1.4776,1.4776,0,0,1,1.52107-1.3522c4,.60008,6.891-2.22359,10.36575-3.1906,3.617-1.00659,4.87128-3.75651,5.39917-6.97919.37387-2.28235-1.70372-2.76424-3.17735-3.71868-1.45236-.94065-3.31838-1.95327-2.33316-4.19709.86155-1.9621,2.58492-2.59976,4.69264-2.35659C175.47914,45.53643,175.73266,46.28862,174.38637,47.93114Z" transform="translate(-7.10215 -16.3876)"/>
      <path class="cls-1" d="M260.76615,83.24923c-3.125-.31855-5.53874-2.27745-7.48468-4.57392-1.24805-1.4729-.31318-3.40384.67087-4.9786,1.005-1.60821,2.252-.63691,3.31789-.20267a5.39962,5.39962,0,0,0,3.95115-.10841c4.07987-1.30364,7.06863.85727,7.30388,5.09223.03658.65862.19068,1.37722-.49324,1.65091C265.62994,81.09007,263.71269,83.1766,260.76615,83.24923Z" transform="translate(-7.10215 -16.3876)"/>
      <path class="cls-1" d="M57.99216,239.61752c-1.04,1.16-2.43.49-3.6-.06a1.41534,1.41534,0,0,1-.18-.08,8.3391,8.3391,0,0,1-1.41-.82,3.86689,3.86689,0,0,1-1.52-1.93c-.88-3.02-2.82-5.47-4.15-8.28-.19-.42005-.38-.84-.54-1.28-.88-2.34-4.33-3.46-3.58-7,.15-.71-1.6-1.03-2.71-.95-.89.07-1.65,1.04-2.65.39,1.51-2.79,3.52-3.52,6.05-2.08.99.56,2.3,1.15,2.71,2.06a21.18621,21.18621,0,0,0,3.93005,5.27,12.684,12.684,0,0,1,3.38,5.84,6.66729,6.66729,0,0,0,2.35,3.28,6.8802,6.8802,0,0,1,1.71,1.79C58.33218,236.9775,59.01218,238.48751,57.99216,239.61752Z" transform="translate(-7.10215 -16.3876)"/>
      <path class="cls-1" d="M76.17215,252.73751c-.12,1.23-.31,2.56-1.54,3.22a3.11728,3.11728,0,0,1-3.53-.6c-1.6-1.28-3.23-2.41-5.42-1.3a.94744.94744,0,0,1-.89-.11,8.12279,8.12279,0,0,0-2.41-2.18006,15.54225,15.54225,0,0,0-4.1-1.59c-1.06-.28-1.27-1.64.24-1.86,2.17-.3,2.95-1.91,3.43-3.51.54-1.79,1.63-2.12,2.74-1.17,1.66,1.42,3.84,2.2,5.57,3.55a6.713,6.713,0,0,1,2.3,2.88c.32.78.95.66,1.59.47C76.20218,249.94754,76.13217,251.35751,76.17215,252.73751Z" transform="translate(-7.10215 -16.3876)"/>
      <path class="cls-1" d="M279.91575,35.72664c2.01665,1.21653,3.94264.53208,5.7391.77344.8241.11071,2.027.06605,2.05425,1.03275.045,1.59927-1.19965.40276-1.84311.55111-1.12463.25931-1.1336.22043-.60925,3.51-2.31381-2.62854-5.24574-3.10707-8.40575-2.91606-.88456.05347-1.79552-.32493-1.76055-1.37856a3.23378,3.23378,0,0,1,1.71716-3.09389,15.31505,15.31505,0,0,1,2.33948-.89291c1.04142-.29667,2.33154-1.19327,2.9998.37124C282.892,35.42813,280.69043,34.8547,279.91575,35.72664Z" transform="translate(-7.10215 -16.3876)"/>
      <path class="cls-1" d="M290.11748,27.74728c-2.12535.62527-4.50454,2.067-5.26866-1.31558-.1324-.58608-.50191-1.23222.18339-1.67243a1.26081,1.26081,0,0,1,1.44468.24429C287.70354,25.90021,288.9057,26.83031,290.11748,27.74728Z" transform="translate(-7.10215 -16.3876)"/>
      <path class="cls-1" d="M47.87293,243.21012a11.87378,11.87378,0,0,1,3.78348,3.61644c.10881.18244-.04947.77655-.18673.81523-1.87586.52872-2.79553-1.31435-4.27929-1.846-.83541-.29933-.52434-1.4584-.138-2.21771C47.1533,243.37969,47.565,243.3394,47.87293,243.21012Z" transform="translate(-7.10215 -16.3876)"/>
      <path class="cls-1" d="M281.88473,20.38562c-.95322-.03532-2.50492.24237-2.40548-.74845.16911-1.68482,2.0468-1.29628,3.272-1.51975,1.02433-.18683,2.56694-.04025,2.31188,1.22151C284.75961,20.84052,282.9369,20.01575,281.88473,20.38562Z" transform="translate(-7.10215 -16.3876)"/>
      <path class="cls-1" d="M83.13217,257.94754a1.57662,1.57662,0,0,1-1.99,1.4,2.94559,2.94559,0,0,1-2.55-1.52,2.35133,2.35133,0,0,1-.2-.92c-.05-.91.86-1.13,1.62-.96a4.93092,4.93092,0,0,1,3.03,1.87994Z" transform="translate(-7.10215 -16.3876)"/>
      <path class="cls-1" d="M170.58975,59.09664a4.3793,4.3793,0,0,1-2.96718,1.99724,1.10712,1.10712,0,0,1-1.26868-1.37,2.80061,2.80061,0,0,1,2.78479-2.039C170.00028,57.60466,170.271,58.42405,170.58975,59.09664Z" transform="translate(-7.10215 -16.3876)"/>
      <path class="cls-1" d="M55.84219,217.52749c.02.87.19,2.22-1.13,2.11-1.41-.12-.96-1.56-1.12-2.5.17-.9.03-2.24,1.27-2.13C56.32217,215.13748,55.82217,216.5975,55.84219,217.52749Z" transform="translate(-7.10215 -16.3876)"/>
      <path class="cls-1" d="M288.36835,231.24589c-.61149.02028-1.153-.1455-1.223-.75028-.12035-1.03937.8202-1.05731,1.46769-1.27831.52595-.17952,1.16819-.11585,1.14321.57867C289.72737,230.59887,289.07693,231.02991,288.36835,231.24589Z" transform="translate(-7.10215 -16.3876)"/>
      <path class="cls-1" d="M340.22114,99.1422c.45747.75956,1.48278,1.47857.52325,2.42848-.3954.39142-1.006-.02109-1.22272-.56712-.327-.824-1.123-1.90131.76344-1.8128Z" transform="translate(-7.10215 -16.3876)"/>
      <path class="cls-1" d="M430.11816,94.03533l-.55307-.58626Q429.84246,93.743,430.11816,94.03533Z" transform="translate(-7.10215 -16.3876)"/>
      <path class="cls-1" d="M442.70084,109.09272a.27072.27072,0,0,1-.27341-.36327A.32955.32955,0,0,1,442.70084,109.09272Z" transform="translate(-7.10215 -16.3876)"/>
      <path class="cls-1" d="M429.443,93.31549c-.14764-.15406-.29524-.30811-.44126-.46087C429.14983,93.00911,429.29639,93.1623,429.443,93.31549Z" transform="translate(-7.10215 -16.3876)"/>
      <path class="cls-1" d="M428.78225,92.63409c-.13094-.13333-.26187-.26666-.39119-.39874A.42412.42412,0,0,1,428.78225,92.63409Z" transform="translate(-7.10215 -16.3876)"/>
      <path class="cls-1" d="M404.80785,69.40746q-.41116-.24376-.82293-.48762A.697.697,0,0,1,404.80785,69.40746Z" transform="translate(-7.10215 -16.3876)"/>
      <path class="cls-1" d="M403.50353,68.66383q-.31485-.26615-.62991-.5325Z" transform="translate(-7.10215 -16.3876)"/>
      <path class="cls-1" d="M402.93643,68.18786l-.71711-.653Z" transform="translate(-7.10215 -16.3876)"/>
      <path class="cls-1" d="M402.27661,67.58285a.66018.66018,0,0,1-.7002-.65885Q401.92651,67.25337,402.27661,67.58285Z" transform="translate(-7.10215 -16.3876)"/>
      <path class="cls-1" d="M387.10505,56.20637c-.41-.02974-.67956-.20987-.70178-.65509Q386.75418,55.87875,387.10505,56.20637Z" transform="translate(-7.10215 -16.3876)"/>
      <path class="cls-1" d="M443.40722,109.90035q-.2751-.31865-.54929-.63631Q443.13351,109.58317,443.40722,109.90035Z" transform="translate(-7.10215 -16.3876)"/>
      <path class="cls-1" d="M443.88213,110.484l-.52209-.642Z" transform="translate(-7.10215 -16.3876)"/>
      <path class="cls-1" d="M441.98162,107.99382l-.53617-.66654Z" transform="translate(-7.10215 -16.3876)"/>
      <path class="cls-1" d="M441.49853,107.38591q-.275-.3213-.54944-.6419Q441.22431,107.06566,441.49853,107.38591Z" transform="translate(-7.10215 -16.3876)"/>
      <path class="cls-1" d="M431.38987,95.36154q-.33234-.34406-.66494-.68841Z" transform="translate(-7.10215 -16.3876)"/>
      <path class="cls-1" d="M440.7709,106.51941c-.19529-.01819-.27164-.12288-.227-.312A.2637.2637,0,0,1,440.7709,106.51941Z" transform="translate(-7.10215 -16.3876)"/>
      <polygon class="cls-1" points="432.955 89.308 432.822 89.325 432.839 89.195 432.955 89.308"/>
      <path class="cls-1" d="M430.7632,94.71578l-.63362-.66868Q430.44658,94.38157,430.7632,94.71578Z" transform="translate(-7.10215 -16.3876)"/>
      <path class="cls-1" d="M443.31772,412.71642a.84322.84322,0,0,1,.59963-1.03989C443.96445,412.165,443.84987,412.56107,443.31772,412.71642Z" transform="translate(-7.10215 -16.3876)"/>
      <path class="cls-1" d="M442.688,413.35066c-.01409-.45982.19358-.70044.66876-.67683A.69112.69112,0,0,1,442.688,413.35066Z" transform="translate(-7.10215 -16.3876)"/>
      <path class="cls-1" d="M441.99381,414.26429a.81155.81155,0,0,1,.73462-.96054Q442.36108,413.78395,441.99381,414.26429Z" transform="translate(-7.10215 -16.3876)"/>
      <path class="cls-1" d="M441.42037,415.24434a.83867.83867,0,0,1,.59836-1.04494C442.06236,414.68638,441.953,415.08648,441.42037,415.24434Z" transform="translate(-7.10215 -16.3876)"/>
      <path class="cls-1" d="M440.78984,415.87754c-.018-.46457.19633-.69913.67019-.67664Z" transform="translate(-7.10215 -16.3876)"/>
      <path class="cls-1" d="M440.106,416.79051a.83039.83039,0,0,1,.72408-.96023Z" transform="translate(-7.10215 -16.3876)"/>
      <path class="cls-1" d="M369.66842,165.6006c-.0439,1.50889-.38035,2.6066-1.89546,2.60387-2.97894-.00535-4.15671-2.65009-5.49455-4.48629-1.18287-1.62352.38374-3.63211,1.6867-4.94369a2.10513,2.10513,0,0,1,3.30683.35429A16.7914,16.7914,0,0,1,369.66842,165.6006Z" transform="translate(-7.10215 -16.3876)"/>
      <path class="cls-1" d="M380.4845,169.29066c.089-.37942.06994-.691.19351-.76529a11.22725,11.22725,0,0,1,5.57858-1.62786c1.5266-.02371,2.58656,1.28664,3.10637,2.73715.42282,1.17985.07287,2.155-1.35871,2.16435-2.42738.01593-4.6317-1.04029-6.9234-1.66175C380.79456,170.05962,380.63461,169.51586,380.4845,169.29066Z" transform="translate(-7.10215 -16.3876)"/>
      <path class="cls-1" d="M415.79715,167.81846c1.39007.03252,2.79477-.01778,2.86413,1.99859.07075,2.0572-1.2812,2.07049-2.71977,2.0441-1.406-.02578-2.77023.00033-2.84777-2.01678C413.01345,167.755,414.35573,167.77251,415.79715,167.81846Z" transform="translate(-7.10215 -16.3876)"/>
      <path class="cls-1" d="M365.47837,154.26527a2.00923,2.00923,0,0,1-2.35346,1.88646,1.84025,1.84025,0,0,1-1.83516-2.07113,1.90042,1.90042,0,0,1,2.30952-1.90261A1.96455,1.96455,0,0,1,365.47837,154.26527Z" transform="translate(-7.10215 -16.3876)"/>
      <path class="cls-1" d="M435.58042,162.23034c-.41318,1.66369-.31662,3.58781-2.86078,3.28785-1.64276-.1937-2.09429-1.15246-1.9301-2.57381a3.25383,3.25383,0,0,1,3.0666-2.97794C435.27005,159.82078,435.68,161.04378,435.58042,162.23034Z" transform="translate(-7.10215 -16.3876)"/>
      <path class="cls-1" d="M408.608,122.50105a2.01463,2.01463,0,0,1-2.01571-2.22208,1.82454,1.82454,0,0,1,2.02258-1.93737,2.08537,2.08537,0,0,1-.00687,4.15945Z" transform="translate(-7.10215 -16.3876)"/>
    </g>
  </g>
  <g id="Ebene_3" data-name="Ebene 3">
    <g>
      <path class="cls-2" d="M350.00952,243.35114l.3,6.75994h10.62V214.85114a21.07372,21.07372,0,0,0-1.27-7.65,13.0758,13.0758,0,0,0-3.94-5.46,17.72693,17.72693,0,0,0-6.78-3.27,38.70227,38.70227,0,0,0-9.86-1.1,51.16769,51.16769,0,0,0-7.4.52l-.00433.0047c-.9082.11988-1.79639.27948-2.67468.44922a49.03056,49.03056,0,0,0-8.56,2.44v9.91a46.737,46.737,0,0,1,8.61-2.93c.74-.17,1.48-.32,2.23-.45a3.45311,3.45311,0,0,0-1.53-1.82c-1.504-.96033-2.36139-1.513-2.59021-2.078.23114.5636,1.08862,1.11591,2.58923,2.074a3.45313,3.45313,0,0,1,1.53,1.82,39.48534,39.48534,0,0,1,6.79-.59,16.9528,16.9528,0,0,1,4.87.61,8.50056,8.50056,0,0,1,3.23,1.73,6.37391,6.37391,0,0,1,1.8,2.72,10.59072,10.59072,0,0,1,.56,3.57995v3.1h-6.75a43.39337,43.39337,0,0,0-11.16,1.27,24.84989,24.84989,0,0,0-7.92,3.5c-.38.26-.73.54-1.07.82a14.98535,14.98535,0,0,0-2.3,2.35,14.06018,14.06018,0,0,0-1.36005,2.17,14.926,14.926,0,0,0-1.55,6.76,19.26782,19.26782,0,0,0,1.05,6.5,13.4809,13.4809,0,0,0,3.07,5.03,13.97055,13.97055,0,0,0,5.03,3.25,19.07922,19.07922,0,0,0,6.96,1.17005,24.30864,24.30864,0,0,0,5.51-.59,20.95294,20.95294,0,0,0,4.65-1.65,21.22748,21.22748,0,0,0,3.91-2.51A36.31106,36.31106,0,0,0,350.00952,243.35114Zm-7.62-3.76a9.66576,9.66576,0,0,1-5.39,1.88,8.548,8.548,0,0,1-5.54-1.65,5.83458,5.83458,0,0,1-2.03-4.8,7.13293,7.13293,0,0,1,.63-2.97,6.78245,6.78245,0,0,1,2.01-2.47,10.15452,10.15452,0,0,1,3.56-1.67,19.88519,19.88519,0,0,1,5.33-.61h7.57v6.91A38.357,38.357,0,0,1,342.38953,239.59113Z" transform="translate(-7.10215 -16.3876)"/>
      <path class="cls-2" d="M419.90948,205.91113H399.63953v-8.33a12.78822,12.78822,0,0,1,.79-4.75,8.90308,8.90308,0,0,1,2.16-3.23,8.55179,8.55179,0,0,1,1.15686-.89777l.00415.00165a8.84293,8.84293,0,0,1,2.09-.95,13.61674,13.61674,0,0,1,4.07-.59,40.5937,40.5937,0,0,1,6.27.48,36.48684,36.48684,0,0,1,5.31,1.2v-10.01c-1.73-.41-3.6-.75-5.61-1.04a44.94277,44.94277,0,0,0-6.38-.43,33.64743,33.64743,0,0,0-9.2,1.17,18.03537,18.03537,0,0,0-7.03,3.68c-.23932.20935-.47846.42871-.70789.648l-.00311-.002a16.82824,16.82824,0,0,0-3.81,5.80005,24.9655,24.9655,0,0,0-1.61,9.43v7.82H372.15948v9.65h14.98005v34.55h12.5v-34.55h20.26995Z" transform="translate(-7.10215 -16.3876)"/>
      <path class="cls-2" d="M474.93951,198.49109h-1.29a8.46786,8.46786,0,0,1,1.29,2.13Z" transform="translate(-7.10215 -16.3876)"/>
      <path class="cls-2" d="M471.74426,208.14111l.00623.00391h3.19v-7.52a8.46725,8.46725,0,0,0-1.29-2.13h-6.02a3.7276,3.7276,0,0,0-.18,1.89c.12482.73651.269,1.47546.46039,2.19733-.19183-.72309-.33631-1.46344-.46137-2.20124a3.72773,3.72773,0,0,1,.18-1.89h-12.76v-16.51l-12.7,3.3v13.21h-13.87v9.65h13.87v25.2a25.34811,25.34811,0,0,0,1.14,8.06,12.932,12.932,0,0,0,3.56,5.56,15.13071,15.13071,0,0,0,6.09,3.25,31.82654,31.82654,0,0,0,8.77,1.07,47.72265,47.72265,0,0,0,6.45-.46q3.405-.45,6.76-1.22v-9.91a51.26349,51.26349,0,0,1-5.29,1.17,34.17271,34.17271,0,0,1-5.94.51c-3.19,0-5.45-.75-6.81-2.26-1.35-1.50994-2.03-3.73-2.03-6.68v-24.29Z" transform="translate(-7.10215 -16.3876)"/>
      <path class="cls-2" d="M93.27948,256.17108h-4.45a2.94557,2.94557,0,0,0,2.55,1.52A1.57631,1.57631,0,0,0,93.369,256.293l.00152.00207a1.57662,1.57662,0,0,1-1.99,1.4,2.94558,2.94558,0,0,1-2.55-1.52h-31.36v10.42h18.19v17.10651l-.001-.00043v38.88h12.8V292.91467l.001.00037v-26.32h18.18994v-10.42h-13.368Z" transform="translate(-7.10215 -16.3876)"/>
      <path class="cls-2" d="M335.77948,270.96112h-15.5l-18.03,21.85V289.97l.001-.00494v-24a8.20456,8.20456,0,0,1-1.94745-3.3667,8.20684,8.20684,0,0,0,1.94647,3.36279V253.00684l.001-.00184v-2.21h-12.4v71.79h12.4v-21.48q-.23081-.71109-.38483-1.41717c.10352.46948.23041.94055.38385,1.41327v-4.33l14.07,19.07,2.47,3.34,2.51,3.4h16.21l-22.66-28.1Z" transform="translate(-7.10215 -16.3876)"/>
      <path class="cls-2" d="M385.71948,276.29114a19.50055,19.50055,0,0,0-7.06-4.75,25.873,25.873,0,0,0-9.7-1.7,24.32845,24.32845,0,0,0-10.04,2.01,21.42256,21.42256,0,0,0-7.64,5.69,26.16352,26.16352,0,0,0-4.88,8.84,35.98954,35.98954,0,0,0-1.73,11.46,33.09207,33.09207,0,0,0,1.73,11.17,21.68887,21.68887,0,0,0,4.98,8.11,21.06682,21.06682,0,0,0,7.92,4.95,31.13369,31.13369,0,0,0,10.57,1.68q2.34,0,4.83-.18c1.66-.12,3.3-.3,4.93-.54q2.43-.34506,4.77-.81a3.41244,3.41244,0,0,0,.34-.07c1.43-.28,2.76-.6,3.98-.94v-9.86a62.31639,62.31639,0,0,1-8.92,1.9,58.16323,58.16323,0,0,1-8.05.59,18.15406,18.15406,0,0,1-5.92-.92005,12.57439,12.57439,0,0,1-4.57-2.66,11.85693,11.85693,0,0,1-2.95-4.35,16.02249,16.02249,0,0,1-1.04-5.99h33.94c.1-1.19.18-2.46.23-3.81.05-1.36.07-2.46.07-3.3a27.9084,27.9084,0,0,0-1.47-9.25A20.34488,20.34488,0,0,0,385.71948,276.29114Zm-28.25,14.74c.38-3.8,1.56-6.73,3.56-8.82a10.18153,10.18153,0,0,1,7.67-3.12,11.12684,11.12684,0,0,1,3.99.71,8.67422,8.67422,0,0,1,3.25,2.18,10.57283,10.57283,0,0,1,2.21,3.74,14.87166,14.87166,0,0,1,.76,5.31Z" transform="translate(-7.10215 -16.3876)"/>
      <path class="cls-2" d="M445.54572,275.17749a13.12919,13.12919,0,0,0-5.08106-3.98828,16.89272,16.89272,0,0,0-6.93457-1.34668,21.09069,21.09069,0,0,0-5.2334.61035,16.792,16.792,0,0,0-4.34375,1.752,18.0113,18.0113,0,0,0-3.55566,2.71875,20.41006,20.41006,0,0,0-2.8711,3.55664l-.457-7.51953H405.84064v51.61817h12.70215v-32.668a32.56476,32.56476,0,0,1,6.42675-7.44336,9.34914,9.34914,0,0,1,5.665-2.26074,6.16,6.16,0,0,1,2.79395.61035,5.19565,5.19565,0,0,1,2.05762,1.93066,9.50068,9.50068,0,0,1,1.21875,3.35254,22.82622,22.82622,0,0,1,.28027,4.92871h12.44726a34.27124,34.27124,0,0,0-.83886-9.22168A17.53666,17.53666,0,0,0,445.54572,275.17749Z" transform="translate(-7.10215 -16.3876)"/>
      <path class="cls-2" d="M61.52051,235.075c-.88-3.02-2.82-5.47-4.15-8.28h-13.16l8.74-30.89,7.63,27.3.00018.00018.99884,3.58594h-4.21c1.33,2.81,3.27,5.25995,4.15,8.28a3.86692,3.86692,0,0,0,1.52,1.93h1.34l.25.9c1.17.55,2.56,1.22,3.6.06a2.36705,2.36705,0,0,0,.36786-2.39484,2.36921,2.36921,0,0,1-.36688,2.39875c-1.04,1.16-2.43.49-3.6-.06l3.41,12.21h4.58a15.54261,15.54261,0,0,0-4.1-1.59,1.127,1.127,0,0,1-.78864-.65686,1.12888,1.12888,0,0,0,.78766.653,15.54232,15.54232,0,0,1,4.1,1.59h9.24l-1.36-4.57995-.00024-.00019L67.28046,200.885a8.26205,8.26205,0,0,1-2.51,4.96,3.62029,3.62029,0,0,1-4.09.86,1.39006,1.39006,0,0,1-.89307-.9256,1.39039,1.39039,0,0,0,.89209.92169,3.62028,3.62028,0,0,0,4.09-.86,8.26208,8.26208,0,0,0,2.51-4.96l-5.09-17.17h-3.19a1.97155,1.97155,0,0,0,.52.36,4.809,4.809,0,0,1,2.88312,2.99261,4.81236,4.81236,0,0,0-2.88214-2.98871,1.97137,1.97137,0,0,1-.52-.36h-14.28l-9.10864,30.77539-.00232.00067-9,30.37-1.55,5.25h12.39l1.74933-6.10754.00165.00146,2.01-7h21.83A3.86688,3.86688,0,0,1,61.52051,235.075Zm3.43-17.09a1.01208,1.01208,0,0,1-1.02881-.94318,1.01114,1.01114,0,0,0,1.02783.93927c1.32.11005,1.15-1.24,1.13-2.11a6.17012,6.17012,0,0,0-.03272-1.907,6.12532,6.12532,0,0,1,.0337,1.91089C66.10046,216.745,66.27051,218.095,64.9505,217.985Zm-24.22,1.13a7.58717,7.58717,0,0,1-1.12,2.92c-2.97,4.29-3.84,9.83-7.97,13.43a1.54453,1.54453,0,0,0-.50348,1.78039,1.54549,1.54549,0,0,1,.50251-1.7843c4.13-3.6,5-9.14,7.97-13.43a7.58742,7.58742,0,0,0,1.12-2.92005,4.428,4.428,0,0,0-.11407-2.28118A4.4268,4.4268,0,0,1,40.73047,219.115Z" transform="translate(-7.10215 -16.3876)"/>
      <path class="cls-2" d="M105.61047,190.085a8.00557,8.00557,0,0,0,2.59,1.73,8.22438,8.22438,0,0,0,3.22.64,8.05717,8.05717,0,0,0,5.77-2.37,7.59663,7.59663,0,0,0,1.7-2.56,8.43827,8.43827,0,0,0,0-6.3,7.92628,7.92628,0,0,0-1.7-2.59,8.01258,8.01258,0,0,0-2.56-1.76,8.09858,8.09858,0,0,0-3.21-.63,8.21847,8.21847,0,0,0-3.22.63,7.97484,7.97484,0,0,0-4.29,4.35,8.4384,8.4384,0,0,0,0,6.3A7.59677,7.59677,0,0,0,105.61047,190.085Z" transform="translate(-7.10215 -16.3876)"/>
      <polygon class="cls-2" points="126.268 224.077 111.388 224.077 111.388 182.107 84.098 182.107 84.098 191.757 98.678 191.757 98.678 224.077 82.328 224.077 82.328 233.727 126.268 233.727 126.268 224.077"/>
      <path class="cls-2" d="M178.06049,210.285a9.60648,9.60648,0,0,1,1.21,3.35,22.38038,22.38038,0,0,1,.28,4.93h12.45a34.36054,34.36054,0,0,0-.84-9.22,17.51822,17.51822,0,0,0-3.04-6.63,13.21051,13.21051,0,0,0-5.09-3.99,16.80151,16.80151,0,0,0-6.93-1.35,21.38606,21.38606,0,0,0-5.23.61,16.6662,16.6662,0,0,0-4.35,1.76,17.74638,17.74638,0,0,0-3.55,2.71,20.06261,20.06261,0,0,0-2.87,3.56l-.46-7.52h-11.23v51.62h12.7v-32.67a32.729,32.729,0,0,1,6.43-7.44,9.314,9.314,0,0,1,5.66-2.26,6.16523,6.16523,0,0,1,2.8.61A5.18622,5.18622,0,0,1,178.06049,210.285Z" transform="translate(-7.10215 -16.3876)"/>
      <path class="cls-2" d="M245.30048,248.135v-11.03a34.62593,34.62593,0,0,1-3.28,1.22c-1.17005.38-2.36005.71-3.56.99a32.449,32.449,0,0,1-3.6.66,26.10629,26.10629,0,0,1-3.43.23,16.31615,16.31615,0,0,1-6.1-1.09,13.06061,13.06061,0,0,1-4.7-3.15,14.18416,14.18416,0,0,1-3.02-5,19.54829,19.54829,0,0,1-1.07-6.66,20.56273,20.56273,0,0,1,.99-6.53,14.11975,14.11975,0,0,1,2.87-5.05,12.96488,12.96488,0,0,1,4.63-3.25,15.5983,15.5983,0,0,1,6.19-1.17005,31.02474,31.02474,0,0,1,6.99.86005,31.38213,31.38213,0,0,1,6.83,2.44v-12.04a48.43641,48.43641,0,0,0-6.17-1.35,57.2193,57.2193,0,0,0-8.46-.53,30.65964,30.65964,0,0,0-11.15,1.93,23.88418,23.88418,0,0,0-14.07,14.07,30.67428,30.67428,0,0,0-1.96,11.23,32.48055,32.48055,0,0,0,1.8,11.28,21.76264,21.76264,0,0,0,5.21,8.18,22.01168,22.01168,0,0,0,8.28,4.98,33.76354,33.76354,0,0,0,11.03,1.67,45.19285,45.19285,0,0,0,8.18-.71A38.81019,38.81019,0,0,0,245.30048,248.135Z" transform="translate(-7.10215 -16.3876)"/>
      <path class="cls-2" d="M292.47046,210.285a9.60581,9.60581,0,0,1,1.22,3.35,23.00753,23.00753,0,0,1,.28,4.93h12.45a34.36072,34.36072,0,0,0-.84-9.22,17.52872,17.52872,0,0,0-3.05-6.63,13.17907,13.17907,0,0,0-5.08-3.99,16.88318,16.88318,0,0,0-6.94-1.35,21.44525,21.44525,0,0,0-5.23.61,16.59665,16.59665,0,0,0-4.34,1.76,17.81173,17.81173,0,0,0-3.56,2.71,20.51521,20.51521,0,0,0-2.87,3.56l-.46-7.52h-11.23v51.62h12.71v-32.67a32.48265,32.48265,0,0,1,6.42-7.44,9.33906,9.33906,0,0,1,5.67-2.26,6.09313,6.09313,0,0,1,2.79.61A5.18622,5.18622,0,0,1,292.47046,210.285Z" transform="translate(-7.10215 -16.3876)"/>
      <path class="cls-2" d="M159.5105,275.185a13.10659,13.10659,0,0,0-5.08-3.99,16.83591,16.83591,0,0,0-6.93-1.35,20.99088,20.99088,0,0,0-5.24.61,16.92672,16.92672,0,0,0-4.34,1.75,18.54545,18.54545,0,0,0-3.56,2.72,20.99667,20.99667,0,0,0-2.87,3.56l-.45-7.52h-11.23v51.04644l-.001-.00036v.57h1.61981l.01117.0039h11.07v-32.67a32.2884,32.2884,0,0,1,6.43-7.44,9.29159,9.29159,0,0,1,5.66-2.26,6.09411,6.09411,0,0,1,2.79.61,5.12275,5.12275,0,0,1,2.06,1.93,9.33836,9.33836,0,0,1,1.22,3.35,22.33516,22.33516,0,0,1,.28,4.93h12.45a34.36147,34.36147,0,0,0-.84-9.22A17.5291,17.5291,0,0,0,159.5105,275.185Z" transform="translate(-7.10215 -16.3876)"/>
      <path class="cls-2" d="M212.7005,274.215a17.738,17.738,0,0,0-6.78-3.28,39.1704,39.1704,0,0,0-9.85-1.09,51.1667,51.1667,0,0,0-10.09.97,48.43109,48.43109,0,0,0-8.56,2.44v9.9a47.725,47.725,0,0,1,8.61-2.92,39.69552,39.69552,0,0,1,9.02-1.04,16.6828,16.6828,0,0,1,4.88.61,8.4553,8.4553,0,0,1,3.22,1.73,6.517,6.517,0,0,1,1.81006,2.71,10.94885,10.94885,0,0,1,.56,3.59v3.1h-6.76a43.2586,43.2586,0,0,0-11.15,1.27,24.69044,24.69044,0,0,0-7.93,3.5,14.31225,14.31225,0,0,0-4.72,5.34,14.78445,14.78445,0,0,0-1.55,6.75,19.3262,19.3262,0,0,0,1.04,6.51,13.61124,13.61124,0,0,0,3.07,5.03,14.05761,14.05761,0,0,0,5.03,3.25,19.0806,19.0806,0,0,0,6.96,1.17,24.24986,24.24986,0,0,0,5.51-.59,20.94951,20.94951,0,0,0,4.65-1.65,21.3054,21.3054,0,0,0,3.92-2.51,37.46333,37.46333,0,0,0,3.4-3.18l.3,6.76h10.62v-35.26a21.07525,21.07525,0,0,0-1.27-7.65A12.9897,12.9897,0,0,0,212.7005,274.215Zm-7.18,32.47a39.33212,39.33212,0,0,1-6.15,5.38,9.71771,9.71771,0,0,1-5.39,1.88,8.51848,8.51848,0,0,1-5.53-1.65,5.812,5.812,0,0,1-2.04-4.8,6.98769,6.98769,0,0,1,.64-2.97,6.51,6.51,0,0,1,2.01-2.47,10.01838,10.01838,0,0,1,3.55-1.67,20.01844,20.01844,0,0,1,5.34-.61h7.57Z" transform="translate(-7.10215 -16.3876)"/>
      <path class="cls-2" d="M267.0705,311.785a33.05338,33.05338,0,0,1-3.61.66,27.81376,27.81376,0,0,1-3.43.23,16.35465,16.35465,0,0,1-6.1-1.09,13.14755,13.14755,0,0,1-4.7-3.15,14.1375,14.1375,0,0,1-3.02-5.01,19.448,19.448,0,0,1-1.07-6.65,20.28107,20.28107,0,0,1,1-6.53,13.88865,13.88865,0,0,1,2.87-5.05,12.94979,12.94979,0,0,1,4.62-3.26,15.64932,15.64932,0,0,1,6.2-1.16,30.31313,30.31313,0,0,1,6.98.86,30.77435,30.77435,0,0,1,6.84,2.44v-12.04a46.93949,46.93949,0,0,0-6.18-1.35,55.70747,55.70747,0,0,0-8.46-.53,30.73632,30.73632,0,0,0-11.15,1.93,24.24871,24.24871,0,0,0-8.56,5.48,24.63246,24.63246,0,0,0-5.51,8.59,30.636,30.636,0,0,0-1.96,11.23,32.23912,32.23912,0,0,0,1.81,11.28,21.621,21.621,0,0,0,5.2,8.18,21.97378,21.97378,0,0,0,8.29,4.98,33.96986,33.96986,0,0,0,11.02,1.67,46.11907,46.11907,0,0,0,8.18006-.71,38.61443,38.61443,0,0,0,7.56994-2.18v-11.03a34.6351,34.6351,0,0,1-3.28,1.22C269.46051,311.165,268.27051,311.495,267.0705,311.785Z" transform="translate(-7.10215 -16.3876)"/>
    </g>
  </g>
</svg>
