<svg id="Ebene_3" data-name="Ebene 3" xmlns="http://www.w3.org/2000/svg" viewBox="0 0 449.88098 147.51001">
  <defs>
    <style>
      .cls-1 {
        fill: #f2f2f2;
      }
    </style>
  </defs>
  <g>
    <path class="cls-1" d="M350.00952,243.35114l.3,6.75994h10.62V214.85114a21.07372,21.07372,0,0,0-1.27-7.65,13.0758,13.0758,0,0,0-3.94-5.46,17.72693,17.72693,0,0,0-6.78-3.27,38.70227,38.70227,0,0,0-9.86-1.1,51.16769,51.16769,0,0,0-7.4.52l-.00433.0047c-.9082.11988-1.79639.27948-2.67468.44922a49.03056,49.03056,0,0,0-8.56,2.44v9.91a46.737,46.737,0,0,1,8.61-2.93c.74-.17,1.48-.32,2.23-.45a3.45311,3.45311,0,0,0-1.53-1.82c-1.504-.96033-2.36139-1.513-2.59021-2.078.23114.5636,1.08862,1.11591,2.58923,2.074a3.45313,3.45313,0,0,1,1.53,1.82,39.48534,39.48534,0,0,1,6.79-.59,16.9528,16.9528,0,0,1,4.87.61,8.50056,8.50056,0,0,1,3.23,1.73,6.37391,6.37391,0,0,1,1.8,2.72,10.59072,10.59072,0,0,1,.56,3.57995v3.1h-6.75a43.39337,43.39337,0,0,0-11.16,1.27,24.84989,24.84989,0,0,0-7.92,3.5c-.38.26-.73.54-1.07.82a14.98535,14.98535,0,0,0-2.3,2.35,14.06018,14.06018,0,0,0-1.36005,2.17,14.926,14.926,0,0,0-1.55,6.76,19.26782,19.26782,0,0,0,1.05,6.5,13.4809,13.4809,0,0,0,3.07,5.03,13.97055,13.97055,0,0,0,5.03,3.25,19.07922,19.07922,0,0,0,6.96,1.17005,24.30864,24.30864,0,0,0,5.51-.59,20.95294,20.95294,0,0,0,4.65-1.65,21.22748,21.22748,0,0,0,3.91-2.51A36.31106,36.31106,0,0,0,350.00952,243.35114Zm-7.62-3.76a9.66576,9.66576,0,0,1-5.39,1.88,8.548,8.548,0,0,1-5.54-1.65,5.83458,5.83458,0,0,1-2.03-4.8,7.13293,7.13293,0,0,1,.63-2.97,6.78245,6.78245,0,0,1,2.01-2.47,10.15452,10.15452,0,0,1,3.56-1.67,19.88519,19.88519,0,0,1,5.33-.61h7.57v6.91A38.357,38.357,0,0,1,342.38953,239.59113Z" transform="translate(-25.05951 -176.245)"/>
    <path class="cls-1" d="M419.90948,205.91113H399.63953v-8.33a12.78822,12.78822,0,0,1,.79-4.75,8.90308,8.90308,0,0,1,2.16-3.23,8.55179,8.55179,0,0,1,1.15686-.89777l.00415.00165a8.84293,8.84293,0,0,1,2.09-.95,13.61674,13.61674,0,0,1,4.07-.59,40.5937,40.5937,0,0,1,6.27.48,36.48684,36.48684,0,0,1,5.31,1.2v-10.01c-1.73-.41-3.6-.75-5.61-1.04a44.94277,44.94277,0,0,0-6.38-.43,33.64743,33.64743,0,0,0-9.2,1.17,18.03537,18.03537,0,0,0-7.03,3.68c-.23932.20935-.47846.42871-.70789.648l-.00311-.002a16.82824,16.82824,0,0,0-3.81,5.80005,24.9655,24.9655,0,0,0-1.61,9.43v7.82H372.15948v9.65h14.98005v34.55h12.5v-34.55h20.26995Z" transform="translate(-25.05951 -176.245)"/>
    <path class="cls-1" d="M474.93951,198.49109h-1.29a8.46786,8.46786,0,0,1,1.29,2.13Z" transform="translate(-25.05951 -176.245)"/>
    <path class="cls-1" d="M471.74426,208.14111l.00623.00391h3.19v-7.52a8.46725,8.46725,0,0,0-1.29-2.13h-6.02a3.7276,3.7276,0,0,0-.18,1.89c.12482.73651.269,1.47546.46039,2.19733-.19183-.72309-.33631-1.46344-.46137-2.20124a3.72773,3.72773,0,0,1,.18-1.89h-12.76v-16.51l-12.7,3.3v13.21h-13.87v9.65h13.87v25.2a25.34811,25.34811,0,0,0,1.14,8.06,12.932,12.932,0,0,0,3.56,5.56,15.13071,15.13071,0,0,0,6.09,3.25,31.82654,31.82654,0,0,0,8.77,1.07,47.72265,47.72265,0,0,0,6.45-.46q3.405-.45,6.76-1.22v-9.91a51.26349,51.26349,0,0,1-5.29,1.17,34.17271,34.17271,0,0,1-5.94.51c-3.19,0-5.45-.75-6.81-2.26-1.35-1.50994-2.03-3.73-2.03-6.68v-24.29Z" transform="translate(-25.05951 -176.245)"/>
    <path class="cls-1" d="M93.27948,256.17108h-4.45a2.94557,2.94557,0,0,0,2.55,1.52A1.57631,1.57631,0,0,0,93.369,256.293l.00152.00207a1.57662,1.57662,0,0,1-1.99,1.4,2.94558,2.94558,0,0,1-2.55-1.52h-31.36v10.42h18.19v17.10651l-.001-.00043v38.88h12.8V292.91467l.001.00037v-26.32h18.18994v-10.42h-13.368Z" transform="translate(-25.05951 -176.245)"/>
    <path class="cls-1" d="M335.77948,270.96112h-15.5l-18.03,21.85V289.97l.001-.00494v-24a8.20456,8.20456,0,0,1-1.94745-3.3667,8.20684,8.20684,0,0,0,1.94647,3.36279V253.00684l.001-.00184v-2.21h-12.4v71.79h12.4v-21.48q-.23081-.71109-.38483-1.41717c.10352.46948.23041.94055.38385,1.41327v-4.33l14.07,19.07,2.47,3.34,2.51,3.4h16.21l-22.66-28.1Z" transform="translate(-25.05951 -176.245)"/>
    <path class="cls-1" d="M385.71948,276.29114a19.50055,19.50055,0,0,0-7.06-4.75,25.873,25.873,0,0,0-9.7-1.7,24.32845,24.32845,0,0,0-10.04,2.01,21.42256,21.42256,0,0,0-7.64,5.69,26.16352,26.16352,0,0,0-4.88,8.84,35.98954,35.98954,0,0,0-1.73,11.46,33.09207,33.09207,0,0,0,1.73,11.17,21.68887,21.68887,0,0,0,4.98,8.11,21.06682,21.06682,0,0,0,7.92,4.95,31.13369,31.13369,0,0,0,10.57,1.68q2.34,0,4.83-.18c1.66-.12,3.3-.3,4.93-.54q2.43-.34506,4.77-.81a3.41244,3.41244,0,0,0,.34-.07c1.43-.28,2.76-.6,3.98-.94v-9.86a62.31639,62.31639,0,0,1-8.92,1.9,58.16323,58.16323,0,0,1-8.05.59,18.15406,18.15406,0,0,1-5.92-.92005,12.57439,12.57439,0,0,1-4.57-2.66,11.85693,11.85693,0,0,1-2.95-4.35,16.02249,16.02249,0,0,1-1.04-5.99h33.94c.1-1.19.18-2.46.23-3.81.05-1.36.07-2.46.07-3.3a27.9084,27.9084,0,0,0-1.47-9.25A20.34488,20.34488,0,0,0,385.71948,276.29114Zm-28.25,14.74c.38-3.8,1.56-6.73,3.56-8.82a10.18153,10.18153,0,0,1,7.67-3.12,11.12684,11.12684,0,0,1,3.99.71,8.67422,8.67422,0,0,1,3.25,2.18,10.57283,10.57283,0,0,1,2.21,3.74,14.87166,14.87166,0,0,1,.76,5.31Z" transform="translate(-25.05951 -176.245)"/>
    <path class="cls-1" d="M445.54572,275.17749a13.12919,13.12919,0,0,0-5.08106-3.98828,16.89272,16.89272,0,0,0-6.93457-1.34668,21.09069,21.09069,0,0,0-5.2334.61035,16.792,16.792,0,0,0-4.34375,1.752,18.0113,18.0113,0,0,0-3.55566,2.71875,20.41006,20.41006,0,0,0-2.8711,3.55664l-.457-7.51953H405.84064v51.61817h12.70215v-32.668a32.56476,32.56476,0,0,1,6.42675-7.44336,9.34914,9.34914,0,0,1,5.665-2.26074,6.16,6.16,0,0,1,2.79395.61035,5.19565,5.19565,0,0,1,2.05762,1.93066,9.50068,9.50068,0,0,1,1.21875,3.35254,22.82622,22.82622,0,0,1,.28027,4.92871h12.44726a34.27124,34.27124,0,0,0-.83886-9.22168A17.53666,17.53666,0,0,0,445.54572,275.17749Z" transform="translate(-25.05951 -176.245)"/>
    <path class="cls-1" d="M61.52051,235.075c-.88-3.02-2.82-5.47-4.15-8.28h-13.16l8.74-30.89,7.63,27.3.00018.00018.99884,3.58594h-4.21c1.33,2.81,3.27,5.25995,4.15,8.28a3.86692,3.86692,0,0,0,1.52,1.93h1.34l.25.9c1.17.55,2.56,1.22,3.6.06a2.36705,2.36705,0,0,0,.36786-2.39484,2.36921,2.36921,0,0,1-.36688,2.39875c-1.04,1.16-2.43.49-3.6-.06l3.41,12.21h4.58a15.54261,15.54261,0,0,0-4.1-1.59,1.127,1.127,0,0,1-.78864-.65686,1.12888,1.12888,0,0,0,.78766.653,15.54232,15.54232,0,0,1,4.1,1.59h9.24l-1.36-4.57995-.00024-.00019L67.28046,200.885a8.26205,8.26205,0,0,1-2.51,4.96,3.62029,3.62029,0,0,1-4.09.86,1.39006,1.39006,0,0,1-.89307-.9256,1.39039,1.39039,0,0,0,.89209.92169,3.62028,3.62028,0,0,0,4.09-.86,8.26208,8.26208,0,0,0,2.51-4.96l-5.09-17.17h-3.19a1.97155,1.97155,0,0,0,.52.36,4.809,4.809,0,0,1,2.88312,2.99261,4.81236,4.81236,0,0,0-2.88214-2.98871,1.97137,1.97137,0,0,1-.52-.36h-14.28l-9.10864,30.77539-.00232.00067-9,30.37-1.55,5.25h12.39l1.74933-6.10754.00165.00146,2.01-7h21.83A3.86688,3.86688,0,0,1,61.52051,235.075Zm3.43-17.09a1.01208,1.01208,0,0,1-1.02881-.94318,1.01114,1.01114,0,0,0,1.02783.93927c1.32.11005,1.15-1.24,1.13-2.11a6.17012,6.17012,0,0,0-.03272-1.907,6.12532,6.12532,0,0,1,.0337,1.91089C66.10046,216.745,66.27051,218.095,64.9505,217.985Zm-24.22,1.13a7.58717,7.58717,0,0,1-1.12,2.92c-2.97,4.29-3.84,9.83-7.97,13.43a1.54453,1.54453,0,0,0-.50348,1.78039,1.54549,1.54549,0,0,1,.50251-1.7843c4.13-3.6,5-9.14,7.97-13.43a7.58742,7.58742,0,0,0,1.12-2.92005,4.428,4.428,0,0,0-.11407-2.28118A4.4268,4.4268,0,0,1,40.73047,219.115Z" transform="translate(-25.05951 -176.245)"/>
    <path class="cls-1" d="M105.61047,190.085a8.00557,8.00557,0,0,0,2.59,1.73,8.22438,8.22438,0,0,0,3.22.64,8.05717,8.05717,0,0,0,5.77-2.37,7.59663,7.59663,0,0,0,1.7-2.56,8.43827,8.43827,0,0,0,0-6.3,7.92628,7.92628,0,0,0-1.7-2.59,8.01258,8.01258,0,0,0-2.56-1.76,8.09858,8.09858,0,0,0-3.21-.63,8.21847,8.21847,0,0,0-3.22.63,7.97484,7.97484,0,0,0-4.29,4.35,8.4384,8.4384,0,0,0,0,6.3A7.59677,7.59677,0,0,0,105.61047,190.085Z" transform="translate(-25.05951 -176.245)"/>
    <polygon class="cls-1" points="108.311 64.22 93.431 64.22 93.431 22.25 66.141 22.25 66.141 31.9 80.721 31.9 80.721 64.22 64.371 64.22 64.371 73.87 108.311 73.87 108.311 64.22"/>
    <path class="cls-1" d="M178.06049,210.285a9.60648,9.60648,0,0,1,1.21,3.35,22.38038,22.38038,0,0,1,.28,4.93h12.45a34.36054,34.36054,0,0,0-.84-9.22,17.51822,17.51822,0,0,0-3.04-6.63,13.21051,13.21051,0,0,0-5.09-3.99,16.80151,16.80151,0,0,0-6.93-1.35,21.38606,21.38606,0,0,0-5.23.61,16.6662,16.6662,0,0,0-4.35,1.76,17.74638,17.74638,0,0,0-3.55,2.71,20.06261,20.06261,0,0,0-2.87,3.56l-.46-7.52h-11.23v51.62h12.7v-32.67a32.729,32.729,0,0,1,6.43-7.44,9.314,9.314,0,0,1,5.66-2.26,6.16523,6.16523,0,0,1,2.8.61A5.18622,5.18622,0,0,1,178.06049,210.285Z" transform="translate(-25.05951 -176.245)"/>
    <path class="cls-1" d="M245.30048,248.135v-11.03a34.62593,34.62593,0,0,1-3.28,1.22c-1.17005.38-2.36005.71-3.56.99a32.449,32.449,0,0,1-3.6.66,26.10629,26.10629,0,0,1-3.43.23,16.31615,16.31615,0,0,1-6.1-1.09,13.06061,13.06061,0,0,1-4.7-3.15,14.18416,14.18416,0,0,1-3.02-5,19.54829,19.54829,0,0,1-1.07-6.66,20.56273,20.56273,0,0,1,.99-6.53,14.11975,14.11975,0,0,1,2.87-5.05,12.96488,12.96488,0,0,1,4.63-3.25,15.5983,15.5983,0,0,1,6.19-1.17005,31.02474,31.02474,0,0,1,6.99.86005,31.38213,31.38213,0,0,1,6.83,2.44v-12.04a48.43641,48.43641,0,0,0-6.17-1.35,57.2193,57.2193,0,0,0-8.46-.53,30.65964,30.65964,0,0,0-11.15,1.93,23.88418,23.88418,0,0,0-14.07,14.07,30.67428,30.67428,0,0,0-1.96,11.23,32.48055,32.48055,0,0,0,1.8,11.28,21.76264,21.76264,0,0,0,5.21,8.18,22.01168,22.01168,0,0,0,8.28,4.98,33.76354,33.76354,0,0,0,11.03,1.67,45.19285,45.19285,0,0,0,8.18-.71A38.81019,38.81019,0,0,0,245.30048,248.135Z" transform="translate(-25.05951 -176.245)"/>
    <path class="cls-1" d="M292.47046,210.285a9.60581,9.60581,0,0,1,1.22,3.35,23.00753,23.00753,0,0,1,.28,4.93h12.45a34.36072,34.36072,0,0,0-.84-9.22,17.52872,17.52872,0,0,0-3.05-6.63,13.17907,13.17907,0,0,0-5.08-3.99,16.88318,16.88318,0,0,0-6.94-1.35,21.44525,21.44525,0,0,0-5.23.61,16.59665,16.59665,0,0,0-4.34,1.76,17.81173,17.81173,0,0,0-3.56,2.71,20.51521,20.51521,0,0,0-2.87,3.56l-.46-7.52h-11.23v51.62h12.71v-32.67a32.48265,32.48265,0,0,1,6.42-7.44,9.33906,9.33906,0,0,1,5.67-2.26,6.09313,6.09313,0,0,1,2.79.61A5.18622,5.18622,0,0,1,292.47046,210.285Z" transform="translate(-25.05951 -176.245)"/>
    <path class="cls-1" d="M159.5105,275.185a13.10659,13.10659,0,0,0-5.08-3.99,16.83591,16.83591,0,0,0-6.93-1.35,20.99088,20.99088,0,0,0-5.24.61,16.92672,16.92672,0,0,0-4.34,1.75,18.54545,18.54545,0,0,0-3.56,2.72,20.99667,20.99667,0,0,0-2.87,3.56l-.45-7.52h-11.23v51.04644l-.001-.00036v.57h1.61981l.01117.0039h11.07v-32.67a32.2884,32.2884,0,0,1,6.43-7.44,9.29159,9.29159,0,0,1,5.66-2.26,6.09411,6.09411,0,0,1,2.79.61,5.12275,5.12275,0,0,1,2.06,1.93,9.33836,9.33836,0,0,1,1.22,3.35,22.33516,22.33516,0,0,1,.28,4.93h12.45a34.36147,34.36147,0,0,0-.84-9.22A17.5291,17.5291,0,0,0,159.5105,275.185Z" transform="translate(-25.05951 -176.245)"/>
    <path class="cls-1" d="M212.7005,274.215a17.738,17.738,0,0,0-6.78-3.28,39.1704,39.1704,0,0,0-9.85-1.09,51.1667,51.1667,0,0,0-10.09.97,48.43109,48.43109,0,0,0-8.56,2.44v9.9a47.725,47.725,0,0,1,8.61-2.92,39.69552,39.69552,0,0,1,9.02-1.04,16.6828,16.6828,0,0,1,4.88.61,8.4553,8.4553,0,0,1,3.22,1.73,6.517,6.517,0,0,1,1.81006,2.71,10.94885,10.94885,0,0,1,.56,3.59v3.1h-6.76a43.2586,43.2586,0,0,0-11.15,1.27,24.69044,24.69044,0,0,0-7.93,3.5,14.31225,14.31225,0,0,0-4.72,5.34,14.78445,14.78445,0,0,0-1.55,6.75,19.3262,19.3262,0,0,0,1.04,6.51,13.61124,13.61124,0,0,0,3.07,5.03,14.05761,14.05761,0,0,0,5.03,3.25,19.0806,19.0806,0,0,0,6.96,1.17,24.24986,24.24986,0,0,0,5.51-.59,20.94951,20.94951,0,0,0,4.65-1.65,21.3054,21.3054,0,0,0,3.92-2.51,37.46333,37.46333,0,0,0,3.4-3.18l.3,6.76h10.62v-35.26a21.07525,21.07525,0,0,0-1.27-7.65A12.9897,12.9897,0,0,0,212.7005,274.215Zm-7.18,32.47a39.33212,39.33212,0,0,1-6.15,5.38,9.71771,9.71771,0,0,1-5.39,1.88,8.51848,8.51848,0,0,1-5.53-1.65,5.812,5.812,0,0,1-2.04-4.8,6.98769,6.98769,0,0,1,.64-2.97,6.51,6.51,0,0,1,2.01-2.47,10.01838,10.01838,0,0,1,3.55-1.67,20.01844,20.01844,0,0,1,5.34-.61h7.57Z" transform="translate(-25.05951 -176.245)"/>
    <path class="cls-1" d="M267.0705,311.785a33.05338,33.05338,0,0,1-3.61.66,27.81376,27.81376,0,0,1-3.43.23,16.35465,16.35465,0,0,1-6.1-1.09,13.14755,13.14755,0,0,1-4.7-3.15,14.1375,14.1375,0,0,1-3.02-5.01,19.448,19.448,0,0,1-1.07-6.65,20.28107,20.28107,0,0,1,1-6.53,13.88865,13.88865,0,0,1,2.87-5.05,12.94979,12.94979,0,0,1,4.62-3.26,15.64932,15.64932,0,0,1,6.2-1.16,30.31313,30.31313,0,0,1,6.98.86,30.77435,30.77435,0,0,1,6.84,2.44v-12.04a46.93949,46.93949,0,0,0-6.18-1.35,55.70747,55.70747,0,0,0-8.46-.53,30.73632,30.73632,0,0,0-11.15,1.93,24.24871,24.24871,0,0,0-8.56,5.48,24.63246,24.63246,0,0,0-5.51,8.59,30.636,30.636,0,0,0-1.96,11.23,32.23912,32.23912,0,0,0,1.81,11.28,21.621,21.621,0,0,0,5.2,8.18,21.97378,21.97378,0,0,0,8.29,4.98,33.96986,33.96986,0,0,0,11.02,1.67,46.11907,46.11907,0,0,0,8.18006-.71,38.61443,38.61443,0,0,0,7.56994-2.18v-11.03a34.6351,34.6351,0,0,1-3.28,1.22C269.46051,311.165,268.27051,311.495,267.0705,311.785Z" transform="translate(-25.05951 -176.245)"/>
  </g>
</svg>
